<?xml version="1.0" encoding="utf-8"?>
<!-- Generator: Adobe Illustrator 16.0.0, SVG Export Plug-In . SVG Version: 6.00 Build 0)  -->
<!DOCTYPE svg PUBLIC "-//W3C//DTD SVG 1.1//EN" "http://www.w3.org/Graphics/SVG/1.1/DTD/svg11.dtd">
<svg version="1.1" id="Layer_1" xmlns="http://www.w3.org/2000/svg" xmlns:xlink="http://www.w3.org/1999/xlink" x="0px" y="0px"
	 width="1200px" height="1200px" viewBox="0 0 1200 1200" enable-background="new 0 0 1200 1200" xml:space="preserve">
<rect display="none" fill="#FFFFFF" width="1200" height="1200"/>
<g>
	<linearGradient id="SVGID_1_" gradientUnits="userSpaceOnUse" x1="396.4648" y1="304.9116" x2="748.0789" y2="558.347">
		<stop  offset="0" style="stop-color:#FFBCF8"/>
		<stop  offset="0.4975" style="stop-color:#FF42F1"/>
		<stop  offset="1" style="stop-color:#D4007C"/>
	</linearGradient>
	<path fill-rule="evenodd" clip-rule="evenodd" fill="url(#SVGID_1_)" d="M600.098,295.609c-86.555,0-156.67,69.895-156.67,155.99
		c0,86.295,70.115,155.998,156.67,155.998c86.362,0,156.473-69.703,156.473-155.998C756.57,365.504,686.46,295.609,600.098,295.609
		L600.098,295.609z"/>
	<linearGradient id="SVGID_2_" gradientUnits="userSpaceOnUse" x1="522.6387" y1="136.0391" x2="422.744" y2="775.3839">
		<stop  offset="0" style="stop-color:#FF54FF"/>
		<stop  offset="0.4926" style="stop-color:#9C00BF"/>
		<stop  offset="1" style="stop-color:#5A00A9"/>
	</linearGradient>
	<path fill-rule="evenodd" clip-rule="evenodd" fill="url(#SVGID_2_)" d="M448.657,602.592
		C260.8,424.272,355.479,110.56,600.105,67.423c-183.795,0-337.593,128.13-376.152,299.83
		c-22.068,244.522,282.542,415.36,483.043,269.289c-31.482,18.159-68.12,28.404-106.892,28.404
		C540.988,664.946,487.429,641.034,448.657,602.592L448.657,602.592z"/>
	<linearGradient id="SVGID_3_" gradientUnits="userSpaceOnUse" x1="48.0996" y1="635.0977" x2="757.3697" y2="722.5103">
		<stop  offset="0" style="stop-color:#FFBCF8"/>
		<stop  offset="0.4975" style="stop-color:#FF42F1"/>
		<stop  offset="1" style="stop-color:#D4007C"/>
	</linearGradient>
	<path fill-rule="evenodd" clip-rule="evenodd" fill="url(#SVGID_3_)" d="M706.997,636.542
		C503.717,757.203,217.098,609,223.954,367.253c-6.213,27.119-9.425,55.31-9.425,84.351c0,255.635,212.798,424.624,418.223,545.065
		c-13.711-91.4-18.724-117.527,37.404-192.91c90.61-122.365,166.654-207.575,143.949-352.155
		C814.105,529.557,773.405,596.608,706.997,636.542L706.997,636.542z"/>
	<linearGradient id="SVGID_4_" gradientUnits="userSpaceOnUse" x1="931.2119" y1="1027.459" x2="479.4789" y2="113.3625">
		<stop  offset="0" style="stop-color:#67FFE5"/>
		<stop  offset="0.3226" style="stop-color:#00B0D4"/>
		<stop  offset="0.6989" style="stop-color:#0070BF"/>
		<stop  offset="1" style="stop-color:#003CA9"/>
	</linearGradient>
	<path fill-rule="evenodd" clip-rule="evenodd" fill="url(#SVGID_4_)" d="M814.105,451.604c0,137.1-75.831,229.79-166.66,352.155
		c-56.119,75.383-77.652,237.635-47.449,328.818c205.213-120.442,385.475-425.339,385.475-680.974
		c0-212.27-172.652-384.18-385.365-384.18c-255.982,41.215-344.88,354.5-151.449,535.168
		c-38.771-38.655-62.763-92.043-62.763-150.988c0-117.88,95.967-213.338,214.211-213.338
		C718.141,238.266,814.105,333.724,814.105,451.604L814.105,451.604z"/>
</g>
<text transform="matrix(1 0 0 1 309.2129 944.791)" display="none" font-family="'Montserrat-Light'" font-size="120" letter-spacing="-6">Accessive.id</text>
</svg>
